<?xml version="1.0" standalone="no"?><!DOCTYPE svg PUBLIC "-//W3C//DTD SVG 1.1//EN" "http://www.w3.org/Graphics/SVG/1.1/DTD/svg11.dtd"><svg t="1529656272371" class="icon" style="" viewBox="0 0 1024 1024" version="1.1" xmlns="http://www.w3.org/2000/svg" p-id="3503" xmlns:xlink="http://www.w3.org/1999/xlink" width="200" height="200"><defs><style type="text/css"></style></defs><path d="M102.4 143.36v512h522.24c24.576-71.68 94.208-122.88 174.08-122.88 20.48 0 43.008 4.096 61.44 10.24V143.36H102.4z m188.416 239.616l-28.672 28.672-28.672-28.672-40.96-40.96 28.672-28.672 40.96 40.96L348.16 266.24l28.672 28.672-86.016 88.064z" fill="#FFFFFF" p-id="3504"></path><path d="M901.12 563.2V122.88c0-10.24-10.24-20.48-20.48-20.48H81.92c-10.24 0-20.48 10.24-20.48 20.48v552.96c0 10.24 10.24 20.48 20.48 20.48h534.528c0 6.144-2.048 14.336-2.048 20.48 0 102.4 81.92 184.32 184.32 184.32s184.32-81.92 184.32-184.32c0-63.488-32.768-120.832-81.92-153.6zM102.4 655.36V143.36h757.76v399.36c-18.432-6.144-40.96-10.24-61.44-10.24-79.872 0-147.456 51.2-174.08 122.88H102.4z m696.32 204.8c-79.872 0-143.36-63.488-143.36-143.36 0-6.144 0-14.336 2.048-20.48 2.048-14.336 6.144-28.672 12.288-40.96 22.528-49.152 71.68-81.92 129.024-81.92 22.528 0 43.008 4.096 61.44 14.336 16.384 6.144 28.672 16.384 40.96 28.672 24.576 26.624 40.96 61.44 40.96 100.352 0 79.872-63.488 143.36-143.36 143.36z" fill="#1C2754" p-id="3505"></path><path d="M102.4 143.36h757.76v81.92H102.4zM491.52 348.16h184.32c12.288 0 20.48 8.192 20.48 20.48s-8.192 20.48-20.48 20.48h-184.32c-12.288 0-20.48-8.192-20.48-20.48s8.192-20.48 20.48-20.48z" fill="#60C0FF" p-id="3506"></path><path d="M378.88 296.96l-88.064 86.016-28.672 28.672-28.672-28.672-40.96-43.008 28.672-28.672 40.96 40.96L348.16 266.24z" fill="#3EC572" p-id="3507"></path><path d="M491.52 512h184.32c12.288 0 20.48 8.192 20.48 20.48s-8.192 20.48-20.48 20.48h-184.32c-12.288 0-20.48-8.192-20.48-20.48s8.192-20.48 20.48-20.48z" fill="#60C0FF" p-id="3508"></path><path d="M276.48 610.304c-36.864 0-67.584-30.72-67.584-67.584 0-36.864 30.72-67.584 67.584-67.584s67.584 30.72 67.584 67.584c0 36.864-30.72 67.584-67.584 67.584z m0-102.4c-18.432 0-34.816 16.384-34.816 34.816s16.384 34.816 34.816 34.816 34.816-16.384 34.816-34.816-16.384-34.816-34.816-34.816z" fill="#F85722" p-id="3509"></path><path d="M901.12 616.448c-12.288-12.288-24.576-22.528-40.96-28.672-18.432-8.192-38.912-14.336-61.44-14.336-57.344 0-106.496 32.768-129.024 81.92-6.144 12.288-10.24 26.624-12.288 40.96-2.048 6.144-2.048 14.336-2.048 20.48 0 79.872 63.488 143.36 143.36 143.36s143.36-63.488 143.36-143.36c0-38.912-16.384-73.728-40.96-100.352zM860.16 737.28h-40.96v40.96c0 10.24-10.24 20.48-20.48 20.48s-20.48-10.24-20.48-20.48v-40.96h-40.96c-10.24 0-20.48-10.24-20.48-20.48s10.24-20.48 20.48-20.48h40.96v-40.96c0-10.24 10.24-20.48 20.48-20.48s20.48 10.24 20.48 20.48v40.96h40.96c10.24 0 20.48 10.24 20.48 20.48s-10.24 20.48-20.48 20.48z" fill="#3EC572" p-id="3510"></path><path d="M880.64 716.8c0 10.24-10.24 20.48-20.48 20.48h-40.96v40.96c0 10.24-10.24 20.48-20.48 20.48s-20.48-10.24-20.48-20.48v-40.96h-40.96c-10.24 0-20.48-10.24-20.48-20.48s10.24-20.48 20.48-20.48h40.96v-40.96c0-10.24 10.24-20.48 20.48-20.48s20.48 10.24 20.48 20.48v40.96h40.96c10.24 0 20.48 10.24 20.48 20.48z" fill="#FFFFFF" p-id="3511"></path></svg>